<svg display="none" xmlns="http://www.w3.org/2000/svg">
	<symbol id="menu" viewBox="0 0 33 14">
		<rect x="33" y="5" width="33" height="5" rx="2.5" transform="rotate(-180 33 5)" />
		<rect x="19" y="14" width="19" height="5" rx="2.5" transform="rotate(-180 19 14)" />
	</symbol>

	<symbol id="userLogo" viewBox="-42 0 512 512.001">
		<path d="m210.351562 246.632812c33.882813 0 63.21875-12.152343 87.195313-36.128906 23.96875-23.972656 36.125-53.304687 36.125-87.191406 0-33.875-12.152344-63.210938-36.128906-87.191406-23.976563-23.96875-53.3125-36.121094-87.191407-36.121094-33.886718 0-63.21875 12.152344-87.191406 36.125s-36.128906 53.308594-36.128906 87.1875c0 33.886719 12.15625 63.222656 36.128906 87.195312 23.980469 23.96875 53.316406 36.125 87.191406 36.125zm-65.972656-189.292968c18.394532-18.394532 39.972656-27.335938 65.972656-27.335938 25.996094 0 47.578126 8.941406 65.976563 27.335938 18.394531 18.398437 27.339844 39.980468 27.339844 65.972656 0 26-8.945313 47.578125-27.339844 65.976562-18.398437 18.398438-39.980469 27.339844-65.976563 27.339844-25.992187 0-47.570312-8.945312-65.972656-27.339844-18.398437-18.394531-27.34375-39.976562-27.34375-65.976562 0-25.992188 8.945313-47.574219 27.34375-65.972656zm0 0"/><path d="m426.128906 393.703125c-.691406-9.976563-2.089844-20.859375-4.148437-32.351563-2.078125-11.578124-4.753907-22.523437-7.957031-32.527343-3.3125-10.339844-7.808594-20.550781-13.375-30.335938-5.769532-10.15625-12.550782-19-20.160157-26.277343-7.957031-7.613282-17.699219-13.734376-28.964843-18.199219-11.226563-4.441407-23.667969-6.691407-36.976563-6.691407-5.226563 0-10.28125 2.144532-20.042969 8.5-6.007812 3.917969-13.035156 8.449219-20.878906 13.460938-6.707031 4.273438-15.792969 8.277344-27.015625 11.902344-10.949219 3.542968-22.066406 5.339844-33.042969 5.339844-10.96875 0-22.085937-1.796876-33.042968-5.339844-11.210938-3.621094-20.300782-7.625-26.996094-11.898438-7.769532-4.964844-14.800782-9.496094-20.898438-13.46875-9.753906-6.355468-14.808594-8.5-20.035156-8.5-13.3125 0-25.75 2.253906-36.972656 6.699219-11.257813 4.457031-21.003906 10.578125-28.96875 18.199219-7.609375 7.28125-14.390625 16.121094-20.15625 26.273437-5.558594 9.785157-10.058594 19.992188-13.371094 30.339844-3.199219 10.003906-5.875 20.945313-7.953125 32.523437-2.0625 11.476563-3.457031 22.363282-4.148437 32.363282-.679688 9.777344-1.023438 19.953125-1.023438 30.234375 0 26.726562 8.496094 48.363281 25.25 64.320312 16.546875 15.746094 38.4375 23.730469 65.066406 23.730469h246.53125c26.621094 0 48.511719-7.984375 65.0625-23.730469 16.757813-15.945312 25.253906-37.589843 25.253906-64.324219-.003906-10.316406-.351562-20.492187-1.035156-30.242187zm-44.90625 72.828125c-10.933594 10.40625-25.449218 15.464844-44.378906 15.464844h-246.527344c-18.933594 0-33.449218-5.058594-44.378906-15.460938-10.722656-10.207031-15.933594-24.140625-15.933594-42.585937 0-9.59375.316406-19.066407.949219-28.160157.617187-8.921874 1.878906-18.722656 3.75-29.136718 1.847656-10.285156 4.199219-19.9375 6.996094-28.675782 2.683593-8.378906 6.34375-16.675781 10.882812-24.667968 4.332031-7.617188 9.316407-14.152344 14.816407-19.417969 5.144531-4.925781 11.628906-8.957031 19.269531-11.980469 7.066406-2.796875 15.007812-4.328125 23.628906-4.558594 1.050781.558594 2.921875 1.625 5.953125 3.601563 6.167969 4.019531 13.277344 8.605469 21.136719 13.625 8.859375 5.648437 20.273437 10.75 33.910156 15.152344 13.941406 4.507812 28.160156 6.796875 42.273437 6.796875 14.113282 0 28.335938-2.289063 42.269532-6.792969 13.648437-4.410156 25.058594-9.507813 33.929687-15.164063 8.042969-5.140624 14.953125-9.59375 21.121094-13.617187 3.03125-1.972656 4.902344-3.042969 5.953125-3.601563 8.625.230469 16.566406 1.761719 23.636719 4.558594 7.636719 3.023438 14.121093 7.058594 19.265625 11.980469 5.5 5.261719 10.484375 11.796875 14.816406 19.421875 4.542969 7.988281 8.207031 16.289062 10.886719 24.660156 2.800781 8.75 5.15625 18.398438 7 28.675782 1.867187 10.433593 3.132812 20.238281 3.75 29.144531v.007812c.636719 9.058594.957031 18.527344.960937 28.148438-.003906 18.449219-5.214844 32.378906-15.9375 42.582031zm0 0"/>
	</symbol>

    <symbol id="food" viewBox="0 0 39 35">
        <path
                  d="M38.35 28H0.649975C0.291205 28 0 28.2607 0 28.5833C0 32.1212 3.20775 35 7.15003 35H31.8501C35.7923 35 39 32.1212 39 28.5833C39 28.2607 38.7095 28 38.35 28ZM31.85 33.8333H7.15003C4.14375 33.8333 1.66009 31.7881 1.33575 29.1666H37.6636C37.3392 31.7882 34.8563 33.8333 31.85 33.8333Z" />
                <path
                  d="M19.5007 19.25C19.4974 19.25 19.4948 19.25 19.4922 19.25C16.9306 19.25 14.4703 20.0964 12.5659 21.6341L13.4349 22.501C15.1009 21.157 17.2517 20.4167 19.4929 20.4167C19.4949 20.4167 19.4981 20.4167 19.5001 20.4167C23.1024 20.4167 26.1821 22.1048 27.3462 24.7164L28.5539 24.2836C27.1908 21.2257 23.6366 19.25 19.5007 19.25Z" />
                <path
                  d="M24.4686 23.1898C21.1523 20.7323 16.2266 21.154 13.4875 24.129L14.4898 24.8716C16.7719 22.3924 20.8773 22.0401 23.6398 24.0888C24.0883 24.4219 24.4848 24.8069 24.8183 25.2321L25.883 24.5618C25.4826 24.0514 25.0067 23.59 24.4686 23.1898Z" />
                <path
                  d="M23.1394 25.2502C21.0906 23.4483 17.7925 23.4798 15.7853 25.3167L16.7141 26.1334C18.2195 24.7555 20.6941 24.7328 22.2293 26.0827C22.9736 26.7366 23.4 27.6478 23.4 28.5834H24.7001C24.7001 27.3362 24.1313 26.1211 23.1394 25.2502Z" />
                <path
                  d="M26.6785 21.5833C26.6688 21.5833 26.6597 21.5833 26.65 21.5833H26V22.75H26.6526C30.3426 22.7629 33.4938 25.3225 33.8026 28.6318L35.0974 28.5349C34.734 24.6319 31.0375 21.5833 26.6785 21.5833Z" />
                <path
                  d="M30.5259 25.2554C29.3611 24.321 27.8596 23.8479 26.3003 23.9272C24.7403 24.0048 23.3077 24.6237 22.2657 25.6685L23.2343 26.4466C24.0448 25.634 25.1589 25.1522 26.3725 25.0915C27.5925 25.0349 28.7528 25.3978 29.6595 26.1246C30.4765 26.7809 31.0024 27.6798 31.1402 28.6569L32.4305 28.5099C32.2529 27.2545 31.5763 26.0983 30.5259 25.2554Z" />
                <path
                  d="M27.4267 26.3363C25.6905 25.9362 23.9173 26.8812 23.472 28.4387L24.7318 28.728C24.9983 27.7936 26.063 27.2271 27.1043 27.4669C27.794 27.625 28.3335 28.1086 28.5096 28.728L29.7693 28.4387C29.4742 27.4062 28.5772 26.6006 27.4267 26.3363Z" />
                <path
                  d="M13.0137 21.5962C10.764 21.4317 8.57741 22.0617 6.85684 23.3724C5.13566 24.6831 4.08654 26.5171 3.90259 28.5355L5.19804 28.6312C5.35336 26.9226 6.24129 25.3709 7.69732 24.2626C9.15395 23.1537 11.0039 22.6187 12.9077 22.7599C13.964 22.8369 15.0065 23.1315 15.923 23.6104L16.5776 22.6019C15.494 22.0354 14.2617 21.6878 13.0137 21.5962Z" />
                <path
                  d="M13.0657 23.9435C9.86839 23.5889 6.93814 25.6387 6.54425 28.5122L7.83453 28.6545C8.14066 26.4198 10.4157 24.8314 12.9065 25.1008C14.982 25.3307 16.6102 26.7919 16.8657 28.6545L18.1573 28.5122C17.8282 26.117 15.7345 24.2381 13.0657 23.9435Z" />
                <path
                  d="M13.1715 26.3509C12.3324 26.1538 11.4562 26.2628 10.7074 26.6554C9.95793 27.0491 9.42427 27.6815 9.2052 28.4351L10.463 28.7303C10.5949 28.2782 10.9153 27.8984 11.3645 27.6628C11.8137 27.4266 12.3395 27.3618 12.8432 27.4802C13.5244 27.64 14.0587 28.119 14.2368 28.7308L15.4939 28.4351C15.197 27.4155 14.3071 26.6169 13.1715 26.3509Z" />
                <path
                  d="M19.4999 26.25C18.066 26.25 16.9 27.2965 16.9 28.5833H18.2C18.2 27.9399 18.783 27.4166 19.5 27.4166C20.2169 27.4166 20.8 27.9398 20.8 28.5833H22.1001C22.0999 27.2965 20.9339 26.25 19.4999 26.25Z" />
                <path d="M11.7 2.33331H6.5V3.5H11.7V2.33331Z" />
                <path
                  d="M11.7 4.66669H7.79999V5.83337H11.7V4.66669Z" />
                <path
                  d="M5.06877 12.544C4.37979 11.4631 4.37979 10.1209 5.06877 9.03991C5.98527 7.60197 5.98527 5.81526 5.06877 4.37732C4.37979 3.29643 4.37979 1.95419 5.06877 0.873223C5.18379 0.692412 5.18318 0.470723 5.06679 0.290459C4.95047 0.110811 4.73597 0 4.50456 0H2.60004V1.16669H3.51006C3.05897 2.41329 3.20195 3.79812 3.94036 4.95605C4.62933 6.03695 4.62933 7.37919 3.94036 8.46016C3.02386 9.8981 3.02386 11.6848 3.94036 13.1227C4.62933 14.2036 4.62933 15.5459 3.94036 16.6268C3.02386 18.0653 3.02386 19.8515 3.9137 21.2427C4.11258 21.6324 4.28092 22.0367 4.41422 22.4427L5.66093 22.1131C5.51011 21.6534 5.31968 21.1978 5.06877 20.7108C4.37979 19.6304 4.37979 18.287 5.06877 17.2067C5.98527 15.7687 5.98527 13.9819 5.06877 12.544Z"/>
                <path
                  d="M38.9987 4.2525C38.9454 2.54563 37.3555 1.20866 35.4517 1.2425L16.5113 1.74241L15.52 0.852852C14.9064 0.302764 14.0907 0 13.2243 0C13.223 0 13.2217 0 13.221 0H7.19549C6.96217 0 6.74699 0.111973 6.63128 0.293398C5.71478 1.73134 5.71478 3.51805 6.63128 4.95599C7.32026 6.03688 7.32026 7.37919 6.63128 8.46009C5.71478 9.89803 5.71478 11.6847 6.63128 13.1227C7.32026 14.2036 7.32026 15.5458 6.63128 16.6268C5.71478 18.0653 5.71478 19.8514 6.63128 21.2894C6.72033 21.4294 6.79833 21.5746 6.86528 21.7245L8.0717 21.2905C7.98326 21.0916 7.87799 20.8962 7.75969 20.7107C7.07072 19.6304 7.07072 18.287 7.75969 17.2066C8.6762 15.7687 8.6762 13.982 7.75969 12.544C7.07072 11.4631 7.07072 10.1209 7.75969 9.03991C7.93778 8.75991 8.08144 8.46768 8.18999 8.16669H13.2203C13.2216 8.16669 13.2223 8.16669 13.2236 8.16669C14.0906 8.16669 14.9064 7.86338 15.52 7.31329L16.5035 6.4307L35.347 7.42472C35.4145 7.4282 35.5088 7.42704 35.5484 7.42998C37.4504 7.42998 38.9986 6.04167 38.9999 4.33426L38.9987 4.2525ZM35.5479 6.26322C35.4978 6.25331 35.466 6.26206 35.4244 6.26028L16.2884 5.25116C16.1031 5.23893 15.9217 5.30305 15.7904 5.4209L14.6009 6.4884C14.233 6.81796 13.7442 7 13.2229 7C13.2222 7 13.2216 7 13.2209 7H8.43694C8.49871 6.09813 8.27317 5.18294 7.75962 4.37678C7.13234 3.39213 7.07643 2.18989 7.59257 1.16669H13.2216C13.2223 1.16669 13.2229 1.16669 13.2236 1.16669C13.7436 1.16669 14.233 1.34866 14.6009 1.67884L15.7904 2.74634C15.9165 2.85947 16.0934 2.92599 16.2689 2.91669L35.4887 2.40857C36.7023 2.37884 37.6656 3.22116 37.7 4.33357C37.6987 5.39813 36.7334 6.26322 35.5479 6.26322Z" />
                <path
                  d="M10.3591 12.544C9.67013 11.4631 9.67013 10.1209 10.3584 9.04053C10.6184 8.63454 10.8082 8.19759 10.9232 7.74143L9.65512 7.48419C9.56867 7.8266 9.4263 8.155 9.2307 8.4607C8.3142 9.89864 8.3142 11.6854 9.2307 13.1233C9.91967 14.2042 9.91967 15.547 9.23001 16.6286C8.38176 17.9655 8.31549 19.5936 9.05253 20.9826L10.2258 20.4815C9.67074 19.4361 9.72139 18.2118 10.359 17.2067C11.2756 15.7687 11.2756 13.982 10.3591 12.544Z" />
                <path
                  d="M3.90006 2.33331H2.60004V3.5H3.90006V2.33331Z" />
                <path
                  d="M4.55004 4.66669H2.60004V5.83337H4.55004V4.66669Z" />
                <path
                  d="M5.20001 7H2.60004V8.16669H5.20001V7Z" />
    </symbol>

    <symbol id="education" viewBox="0 0 512 512">
        <g><path d="m88 456c-8.837 0-16-7.164-16-16v-374c0-36.393 29.607-66 66-66h286c8.837 0 16 7.164 16 16v368c0 8.836-7.163 16-16 16s-16-7.164-16-16v-352h-270c-18.748 0-34 15.252-34 34v374c0 8.836-7.163 16-16 16z"/><path d="m424 512h-280c-39.701 0-72-32.299-72-72s32.299-72 72-72h280c8.837 0 16 7.164 16 16s-7.163 16-16 16h-280c-22.056 0-40 17.944-40 40s17.944 40 40 40h280c8.837 0 16 7.164 16 16s-7.163 16-16 16z"/><path d="m424 456h-280c-8.837 0-16-7.164-16-16s7.163-16 16-16h280c8.837 0 16 7.164 16 16s-7.163 16-16 16z"/><path d="m160 400c-8.837 0-16-7.164-16-16v-368c0-8.836 7.163-16 16-16s16 7.164 16 16v368c0 8.836-7.163 16-16 16z"/></g>
    </symbol>

    <symbol id="house" viewBox="0 0 512 512">
        <g><path d="m426 495.983h-340c-25.364 0-46-20.635-46-46v-242.02c0-8.836 7.163-16 16-16s16 7.164 16 16v242.02c0 7.72 6.28 14 14 14h340c7.72 0 14-6.28 14-14v-242.02c0-8.836 7.163-16 16-16s16 7.164 16 16v242.02c0 25.364-20.635 46-46 46z"/><path d="m496 263.958c-4.095 0-8.189-1.562-11.313-4.687l-198.989-198.987c-16.375-16.376-43.02-16.376-59.396 0l-198.988 198.988c-6.248 6.249-16.379 6.249-22.627 0-6.249-6.248-6.249-16.379 0-22.627l198.988-198.989c28.852-28.852 75.799-28.852 104.65 0l198.988 198.988c6.249 6.249 6.249 16.379 0 22.627-3.123 3.125-7.218 4.687-11.313 4.687z"/><path d="m320 495.983h-128c-8.837 0-16-7.164-16-16v-142c0-27.57 22.43-50 50-50h60c27.57 0 50 22.43 50 50v142c0 8.836-7.163 16-16 16zm-112-32h96v-126c0-9.925-8.075-18-18-18h-60c-9.925 0-18 8.075-18 18z"/></g>
    </symbol>

    <symbol id="car" viewBox="0 0 488.001 488.001">
		<path d="M462.6,214.404l-39.2-17.9l-34.6-55.2c-10-16-27.6-25.7-46.5-25.6H194.9c-17.1,0-33.3,7.9-43.7,21.5l-44.7,58.5
			l-74.5,20.4c-18.9,5.2-32,22.5-32,42.1v28.5c0,24.1,19.2,44,43.3,44h6.4c7.7,29.7,38,47.5,67.7,39.8c19.5-5.1,34.8-20.3,39.8-39.8
			h168c7.7,29.7,38,47.5,67.7,39.8c19.5-5.1,34.8-20.3,39.8-39.8h12c24.1,0,43.3-19.9,43.3-44v-32.5
			C488.1,237.104,478.1,221.504,462.6,214.404z M103.4,352.104c-19.6,0-35.5-15.9-35.5-35.5c0-19.6,15.9-35.5,35.5-35.5
			c19.6,0,35.5,15.9,35.5,35.5C139,336.104,123.1,352.004,103.4,352.104z M378.9,352.104c-19.6,0-35.5-15.9-35.5-35.5
			c0-19.6,15.9-35.5,35.5-35.5s35.5,15.9,35.5,35.5C414.5,336.104,398.6,352.004,378.9,352.104z M444.7,310.704h-10.6
			c-3.3-30.5-30.8-52.5-61.3-49.1c-25.9,2.8-46.3,23.3-49.1,49.1H158.6c-3.3-30.5-30.8-52.5-61.3-49.1
			c-25.9,2.8-46.3,23.3-49.1,49.1h-5c-13.1,0-23.3-10.9-23.3-24v-28.5c-0.1-10.7,7-20,17.3-22.9l77.9-21.3c2.1-0.6,4-1.8,5.3-3.6
			l46.6-61.1c6.7-8.6,17-13.6,27.9-13.6h147.4c12-0.1,23.3,6,29.6,16.2l36.2,57.8c1,1.7,2.6,3,4.3,3.8l41.8,19.1
			c8.4,3.9,13.8,12.3,13.7,21.6v32.5h0.1C468,299.804,457.8,310.704,444.7,310.704z"/>
    </symbol>

    <symbol id="clothes" viewBox="0 0 128 128">
        <g><path d="m114.04 93.412-49.1-31.394a1.746 1.746 0 0 0 -1.884 0l-49.1 31.4a8.627 8.627 0 0 0 4.67 15.882h90.748a8.627 8.627 0 0 0 4.666-15.883zm-4.666 12.388h-90.748a5.127 5.127 0 0 1 -2.781-9.434l48.155-30.797 48.149 30.788a5.127 5.127 0 0 1 -2.775 9.438z"/><path d="m119.461 85.01-48.711-31.15v-6.006a20.156 20.156 0 1 0 -26.906-18.993 1.749 1.749 0 0 0 1.75 1.75h10a1.75 1.75 0 0 0 1.75-1.75 6.656 6.656 0 1 1 6.656 6.657h-5a1.749 1.749 0 0 0 -1.75 1.75v16.592l-48.711 31.15a18.626 18.626 0 0 0 10.087 34.29h90.748a18.626 18.626 0 0 0 10.087-34.29zm-10.087 30.79h-90.748a15.127 15.127 0 0 1 -8.2-27.84l49.516-31.667a1.752 1.752 0 0 0 .808-1.475v-15.8h3.25a10.157 10.157 0 1 0 -10-11.907h-6.56a16.657 16.657 0 1 1 21.084 17.783 1.748 1.748 0 0 0 -1.274 1.683v8.241a1.752 1.752 0 0 0 .808 1.475l49.508 31.658a15.128 15.128 0 0 1 -8.192 27.844z"/></g>
    </symbol>

    <symbol id="health" viewBox="0 0 427.614 427.614">

		<path d="M333.363,28.977c-37.8-38.3-99.5-38.7-137.8-0.8c-0.3,0.3-0.5,0.5-0.8,0.8l-81,81c-1.6,0.9-2.9,2.2-3.8,3.8l-81.5,81.4
			c-38,38.1-37.9,99.8,0.1,137.8c38.3,37.9,99.9,37.9,138.3,0l0.1-0.1l81.4-81.7c0.6-0.4,1.1-0.8,1.6-1.3s0.9-1,1.3-1.6l81.3-81.5
			C370.863,128.977,371.163,67.277,333.363,28.977z M152.763,318.777c-30.5,30.1-79.6,30.2-110.1,0c-30.1-30.3-30.1-79.2,0-109.5
			l76.4-76.4l109.6,109.8L152.763,318.777z M318.463,152.477l-75.7,75.9l-109.6-109.6l75.8-75.8c30.2-30.2,79.3-30.2,109.5,0
			S348.663,122.277,318.463,152.477z"/>

		<path d="M240.863,73.777c-3.8-4-10.1-4.1-14.1-0.1l-34.6,34c-4,3.9-4,10.2-0.2,14.1c3.8,3.9,10.2,4,14.1,0.2l0.1-0.1l34.5-34
			C244.663,83.977,244.663,77.677,240.863,73.777z"/>

		<path d="M399.263,262.077c0,0,0,0-0.1-0.1c-37.3-37.9-98.3-38.3-136.2-0.9c-0.3,0.3-0.6,0.6-0.9,0.9
			c-37.9,37.9-37.9,99.3-0.1,137.2c37.8,37.9,99.3,37.9,137.2,0.1C437.063,361.377,437.063,299.977,399.263,262.077z
			 M253.663,330.577c0-42.5,34.5-77,77-77c16.9,0,33.4,5.6,46.8,15.9l-107.9,108C259.263,363.977,253.663,347.477,253.663,330.577z
			 M385.063,384.977c-27.3,27.3-70.7,30.1-101.3,6.6l107.9-107.9C415.263,314.277,412.463,357.677,385.063,384.977z"/>

    </symbol>

    <symbol id="other" viewBox="0 0 477.867 477.867">
		<path d="M68.267,170.667C30.564,170.667,0,201.231,0,238.933S30.564,307.2,68.267,307.2s68.267-30.564,68.267-68.267
			S105.969,170.667,68.267,170.667z M68.267,273.067c-18.851,0-34.133-15.282-34.133-34.133c0-18.851,15.282-34.133,34.133-34.133
			s34.133,15.282,34.133,34.133C102.4,257.785,87.118,273.067,68.267,273.067z"/>

		<path d="M238.933,170.667c-37.703,0-68.267,30.564-68.267,68.267s30.564,68.267,68.267,68.267s68.267-30.564,68.267-68.267
			S276.636,170.667,238.933,170.667z M238.933,273.067c-18.851,0-34.133-15.282-34.133-34.133c0-18.851,15.282-34.133,34.133-34.133
			c18.851,0,34.133,15.282,34.133,34.133C273.067,257.785,257.785,273.067,238.933,273.067z"/>

		<path d="M409.6,170.667c-37.703,0-68.267,30.564-68.267,68.267S371.897,307.2,409.6,307.2s68.267-30.564,68.267-68.267
			S447.303,170.667,409.6,170.667z M409.6,273.067c-18.851,0-34.133-15.282-34.133-34.133c0-18.851,15.282-34.133,34.133-34.133
			s34.133,15.282,34.133,34.133C443.733,257.785,428.451,273.067,409.6,273.067z"/>
    </symbol>

    <symbol id="salary" viewBox="0 0 449.9 449.9">
    		<path d="M446.8,168.836c-2.8-7.3-7.9-13.7-14.5-18.2l-183.9-127.6c-14.1-9.7-32.7-9.7-46.8,0l-183.9,127.6
			c-6.5,4.5-11.6,10.8-14.6,18.2c-2,5-3.1,10.2-3.1,15.6v209.1c0.1,22.5,18.3,40.7,40.8,40.6c0.1,0,0.2,0,0.2,0h367.8
			c9.5,0.1,18.8-3.2,26.2-9.2v0.1c9.5-7.8,14.9-19.3,14.9-31.6v-209C449.9,179.136,448.8,173.836,446.8,168.836z M29.1,167.136
			L213,39.436c7.2-5.1,16.8-5.1,24,0l184,127.7c1.5,1,2.8,2.3,4,3.7l-71,85.6v-121c0.1-5.5-4.3-10.1-9.8-10.3H105.8
			c-5.5,0.1-9.9,4.7-9.8,10.3v118.2l-70.9-82.9C26.3,169.336,27.6,168.136,29.1,167.136z M334.1,280.636l-39.3,47.5l-49.7-28
			c-12.5-7-27.7-7-40.2,0l-46.7,26.3l-42.2-49.4v-131.9h218v135.3C334,280.536,334.1,280.536,334.1,280.636z M22.2,402.936
			c-1.5-2.9-2.2-6.1-2.2-9.4v-198l78.1,91.5l42.2,49.3L22.2,402.936z M42.2,414.136l172.5-96.8c6.4-3.5,14.3-3.5,20.7,0.1l58.2,32.6
			l114.2,64.1H42.2z M430,393.536c0,3.3-0.8,6.5-2.2,9.4l-115.2-64.8l117.4-142V393.536z"/>

		<path d="M255.8,235.136c-4.3-13.4-16.8-22.4-30.8-22.4c-6.9-0.1-12.4-5.7-12.3-12.5c0-6.9,5.5-12.4,12.3-12.4
			c6.9,0,12.4,5.6,12.4,12.4c0,5.5,4.5,10,10,10s10-4.5,10-10c0-14.1-9.1-26.5-22.4-30.8v-6.4c0-5.5-4.5-10-10-10s-10,4.5-10,10v6.4
			c-17,5.5-26.4,23.8-20.9,40.9c4.3,13.4,16.8,22.4,30.9,22.4c6.9,0,12.5,5.6,12.5,12.4c0,6.9-5.6,12.5-12.4,12.5
			c-6.9,0-12.5-5.6-12.5-12.4c0-5.5-4.5-10-10-10s-10,4.5-10,10c0,14.1,9.1,26.5,22.4,30.8v6.1c0,5.5,4.5,10,10,10s10-4.5,10-10
			v-6.1C252.1,270.536,261.4,252.136,255.8,235.136z"/>
    </symbol>

    <symbol id="gifts" viewBox="0 0 512 512">
        <g><path d="m466 87.987h-116.058c15.216-21.824 13.112-52.143-6.344-71.598-21.834-21.835-57.361-21.835-79.195 0-2.451 2.451-5.378 6-8.402 12.003-3.025-6.003-5.951-9.552-8.402-12.003-21.834-21.835-57.361-21.835-79.195 0-19.455 19.455-21.559 49.773-6.344 71.598h-116.06c-25.364 0-46 20.636-46 46v36c0 20.484 13.461 37.877 32 43.814v252.186c0 25.364 20.636 46 46 46h146 64 146c25.364 0 46-20.636 46-46v-252.186c18.539-5.938 32-23.331 32-43.814v-36c0-25.364-20.636-46-46-46zm-194 96h-32v-64h32zm3.764-109.544c4.942-28.425 10.633-34.794 11.266-35.427 4.679-4.679 10.825-7.018 16.971-7.018s12.292 2.339 16.971 7.018c9.357 9.358 9.357 24.583 0 33.941-.629.629-6.96 6.288-35.17 11.221-4.106.718-8.113 1.319-11.81 1.816.486-3.612 1.072-7.527 1.772-11.551zm-84.735-35.427c4.679-4.679 10.825-7.018 16.971-7.018s12.292 2.339 16.971 7.018c.629.629 6.288 6.96 11.221 35.169.718 4.106 1.319 8.114 1.816 11.811-3.612-.487-7.528-1.073-11.551-1.773-28.425-4.942-34.794-10.633-35.427-11.266-9.358-9.357-9.358-24.583-.001-33.941zm-159.029 94.971c0-7.72 6.28-14 14-14h162v64h-160-2c-7.72 0-14-6.28-14-14zm32 332v-250h144v264h-130c-7.72 0-14-6.28-14-14zm176 14v-264h32v264zm208-14c0 7.72-6.28 14-14 14h-130v-264h144zm32-296c0 7.72-6.28 14-14 14h-2-160v-64h162c7.72 0 14 6.28 14 14z"/></g>
    </symbol>

    <symbol id="dividents" viewBox="0 0 42 42">

	    <rect y="20" width="42" height="2"/>
	    <path d="M21,13c2.757,0,5-2.243,5-5s-2.243-5-5-5s-5,2.243-5,5S18.243,13,21,13z M21,5c1.654,0,3,1.346,3,3s-1.346,3-3,3
		s-3-1.346-3-3S19.346,5,21,5z"/>
	    <path d="M21,29c-2.757,0-5,2.243-5,5s2.243,5,5,5s5-2.243,5-5S23.757,29,21,29z M21,37c-1.654,0-3-1.346-3-3s1.346-3,3-3
		s3,1.346,3,3S22.654,37,21,37z"/>
    </symbol>

    <symbol id="extra" viewBox="0 0 64 64">
        <path d="M49,37a1,1,0,0,0,1-1V35a1,1,0,0,0-2,0v1A1,1,0,0,0,49,37Z"/><path d="M45,37a1,1,0,0,0,1-1V35a1,1,0,0,0-2,0v1A1,1,0,0,0,45,37Z"/><path d="M48.293,39.293a1.831,1.831,0,0,1-2.586,0,1,1,0,0,0-1.414,1.414,3.831,3.831,0,0,0,5.414,0,1,1,0,0,0-1.414-1.414Z"/><path d="M55,47H52a1,1,0,0,1-1-1V44.74A7.01,7.01,0,0,0,54,39a3.009,3.009,0,0,0,3-3V35a2.986,2.986,0,0,0-1-2.22V28a5,5,0,0,0-5-5V21.44l1.57.84a3.466,3.466,0,0,0,3.58.17,3.511,3.511,0,0,0,.2-6.07L30.48,2.12a1.02,1.02,0,0,0-.96,0L3.58,16.42a3.515,3.515,0,0,0,.27,6.03,3.605,3.605,0,0,0,1.68.42,3.239,3.239,0,0,0,1.82-.54L9,21.44V42H7.49a3,3,0,0,0-2.93,3.65l3.12,14A2.976,2.976,0,0,0,10.6,62H61a1,1,0,0,0,1-1V54A7.008,7.008,0,0,0,55,47Zm-3.48,1.95a6.008,6.008,0,0,1-9.04,0A2.99,2.99,0,0,0,45,46v-.29a7.042,7.042,0,0,0,4,0V46A2.99,2.99,0,0,0,51.52,48.95ZM52,39a5,5,0,0,1-10,0l.08-7a5.09,5.09,0,0,0,2.27-.54l.65-.34.58.31A5.1,5.1,0,0,0,47.9,32H52Zm3-4v1a1,1,0,0,1-1,1V34A1,1,0,0,1,55,35Zm-1-7v4a2.006,2.006,0,0,0-2-2H47.9a3.068,3.068,0,0,1-1.39-.34l-1.04-.55a1,1,0,0,0-.92,0l-1.11.56A3.029,3.029,0,0,1,42,30a2.006,2.006,0,0,0-2,2V28a2.006,2.006,0,0,1,2-2h1a1,1,0,0,1,1,1,1,1,0,0,0,2,0V26a1,1,0,0,1,1-1h4A3.009,3.009,0,0,1,54,28ZM6.33,20.62A1.5,1.5,0,0,1,4,19.36a1.481,1.481,0,0,1,.61-1.22L30,4.14,55.32,18.1a1.511,1.511,0,0,1-.11,2.59,1.566,1.566,0,0,1-1.62-.12L30.47,8.12a.98.98,0,0,0-.94,0ZM10.6,60a.985.985,0,0,1-.97-.78l-3.11-14a1,1,0,0,1,.19-.85A1.022,1.022,0,0,1,7.49,44H29.4a.985.985,0,0,1,.97.78L33.75,60ZM33.51,49.7l-1.19-5.35A2.976,2.976,0,0,0,29.4,42H11V20.85a1.043,1.043,0,0,0-.1-.43L30,10.14,49,20.36V23H47a3,3,0,0,0-2.53,1.39A2.934,2.934,0,0,0,43,24H42a4,4,0,0,0-4,4v4.78A2.986,2.986,0,0,0,37,35v1a3.009,3.009,0,0,0,3,3,7.01,7.01,0,0,0,3,5.74V46a1,1,0,0,1-1,1H39A7.041,7.041,0,0,0,33.51,49.7ZM40,34v3a1,1,0,0,1-1-1V35A1,1,0,0,1,40,34Zm4,26H35.8l-.44-2H46A2.006,2.006,0,0,1,44,60Zm16,0H56V55a1,1,0,0,0-2,0v5H47.44A3.906,3.906,0,0,0,48,58V57a1,1,0,0,0-1-1H34.91l-.73-3.29A5.02,5.02,0,0,1,39,49h1.1a7.951,7.951,0,0,0,13.8,0H55a5,5,0,0,1,5,5Z"/><path d="M20,55a3,3,0,1,1,3-3A3,3,0,0,1,20,55Zm0-4a1,1,0,1,0,1,1A1,1,0,0,0,20,51Z"/><path d="M16,36h5.647l4.7,3.779A1,1,0,0,0,26.97,40a1,1,0,0,0,1-.992L27.992,36H32a3,3,0,0,0,3-3V23a3,3,0,0,0-3-3H16a3,3,0,0,0-3,3V33A3,3,0,0,0,16,36ZM15,23a1,1,0,0,1,1-1H32a1,1,0,0,1,1,1V33a1,1,0,0,1-1,1H27a1,1,0,0,0-1,.992l-.015,1.932-3.358-2.7A1,1,0,0,0,22,34H16a1,1,0,0,1-1-1Z"/><path d="M18,26h1a1,1,0,0,0,0-2H18a1,1,0,0,0,0,2Z"/><path d="M22,26h8a1,1,0,0,0,0-2H22a1,1,0,0,0,0,2Z"/><path d="M22,29h8a1,1,0,0,0,0-2H22a1,1,0,0,0,0,2Z"/><path d="M18,29h1a1,1,0,0,0,0-2H18a1,1,0,0,0,0,2Z"/><path d="M18,32h1a1,1,0,0,0,0-2H18a1,1,0,0,0,0,2Z"/><path d="M22,32h8a1,1,0,0,0,0-2H22a1,1,0,0,0,0,2Z"/>
    </symbol>

    <symbol id="bonuses" viewBox="0 0 512.001 512.001">

		<path d="M341.954,328.358c-12.131,0-22-8.542-22-19.041c0-10.5,9.869-19.042,22-19.042c12.131,0,22,8.542,22,19.042
			c0,5.522,4.478,10,10,10c5.522,0,10-4.478,10-10c0-18.325-13.654-33.733-32-37.915v-5.201c0-5.522-4.478-10-10-10
			c-5.522,0-10,4.478-10,10v5.201c-18.346,4.182-32,19.59-32,37.915c0,21.527,18.841,39.041,42,39.041c12.131,0,22,8.542,22,19.042
			s-9.869,19.042-22,19.042c-12.131,0-22-8.542-22-19.042c0-5.522-4.478-10-10-10c-5.522,0-10,4.478-10,10
			c0,18.325,13.654,33.733,32,37.915v4.32c0,5.522,4.478,10,10,10c5.522,0,10-4.478,10-10v-4.32c18.346-4.182,32-19.59,32-37.915
			C383.954,345.872,365.113,328.358,341.954,328.358z"/>

		<path d="M451.482,268.876c-13.063-20.355-31.467-36.643-53.222-47.101c-4.979-2.394-10.954-0.298-13.346,4.68
			c-2.393,4.978-0.298,10.952,4.68,13.345C427.505,258.024,452,296.963,452,339.001c0,17.988-4.434,35.827-12.821,51.591
			c-2.594,4.875-0.745,10.931,4.131,13.525c1.496,0.796,3.104,1.174,4.688,1.174c3.578,0,7.039-1.926,8.837-5.305
			C466.756,381.342,472,360.253,472,339.001C472,314.041,464.905,289.792,451.482,268.876z"/>

		<path d="M357.673,209.002L357,209.001c-5.522,0-10,4.477-10,10c0,5.523,4.478,10,10,10l0.579,0.001c0.016,0,0.031,0,0.048,0
			c5.501,0,9.973-4.446,9.999-9.953C367.651,213.526,363.195,209.028,357.673,209.002z"/>

		<path d="M294.407,438.202c-37.91-18.225-62.405-57.164-62.405-99.201c0-17.988,4.434-35.827,12.821-51.591
			c2.594-4.875,0.745-10.931-4.131-13.525c-4.874-2.594-10.932-0.745-13.525,4.131c-9.921,18.645-15.165,39.733-15.165,60.985
			c0,24.96,7.095,49.208,20.518,70.125c13.063,20.355,31.467,36.643,53.222,47.102c1.397,0.672,2.873,0.989,4.326,0.989
			c3.724,0,7.298-2.089,9.02-5.669C301.479,446.57,299.385,440.595,294.407,438.202z"/>

		<path d="M327.002,449.001l-0.579-0.002c-5.548-0.01-10.02,4.429-10.045,9.953c-0.026,5.523,4.432,10.021,9.954,10.047l0.67,0.002
			c5.522,0,10-4.478,10-10C337.002,453.479,332.524,449.001,327.002,449.001z"/>

		<path d="M387.409,175.168c-1.217-2.9-2.708-5.633-4.443-8.168H409c25.364,0,46-20.636,46-46s-20.636-46-46-46h-80.08
			c5.091-7.402,8.08-16.357,8.08-26c0-25.364-20.636-46-46-46H46C20.636,3,0,23.636,0,49s20.636,46,46,46h80.08
			c-5.091,7.402-8.08,16.357-8.08,26s2.988,18.598,8.08,26H100c-25.364,0-46,20.636-46,46c0,14.567,6.814,27.566,17.415,36
			C60.814,237.434,54,250.433,54,265s6.814,27.566,17.415,36C60.814,309.434,54,322.433,54,337c0,14.567,6.814,27.566,17.415,36
			C60.814,381.434,54,394.433,54,409c0,25.364,20.636,46,46,46h117.85c31.046,33.207,75.212,54.001,124.151,54.001
			c93.738,0,170-76.262,170-170C512.001,260.984,459.171,195.083,387.409,175.168z M409,95c14.337,0,26,11.664,26,26
			s-11.663,26-26,26h-64H164c-14.337,0-26-11.664-26-26s11.663-26,26-26H409z M46,75c-14.337,0-26-11.664-26-26s11.663-26,26-26h245
			c14.337,0,26,11.664,26,26s-11.663,26-26,26H46z M100,167h245c4.028,0,7.885,0.936,11.345,2.612
			c-4.73-0.397-9.512-0.611-14.344-0.611c-46.945,0-89.505,19.129-120.299,49.999H100c-14.336,0-26-11.664-26-26S85.664,167,100,167
			z M100,239h104.615c-11.352,15.553-20.129,33.095-25.703,52H100c-14.337,0-26-11.663-26-26C74,250.664,85.663,239,100,239z
			 M100,311h74.32c-1.517,9.113-2.319,18.464-2.319,28.001c0,8.146,0.589,16.156,1.702,23.999H100c-14.337,0-26-11.663-26-26
			C74,322.663,85.663,311,100,311z M100,435c-14.337,0-26-11.663-26-26c0-14.337,11.663-26,26-26h77.786
			c5.046,18.813,13.243,36.346,23.993,52H100z M342.001,489.001c-82.71,0-150-67.29-150-150s67.29-150,150-150s150,67.29,150,150
			S424.711,489.001,342.001,489.001z"/>

    </symbol>

	<symbol id="mastercard" viewBox="0 0 291.791 291.791">
		<path style="fill:#E2574C;" d="M182.298,145.895c0,50.366-40.801,91.176-91.149,91.176S0,196.252,0,145.895
		s40.811-91.176,91.149-91.176S182.298,95.538,182.298,145.895z"/>
		<path style="fill:#F4B459;" d="M200.616,54.719c-20.442,0-39.261,6.811-54.469,18.181l0.073,0.009
		c2.991,2.89,6.291,4.924,8.835,8.251l-18.965,0.301c-2.972,3-5.68,6.264-8.233,9.656H161.3c2.544,3.054,4.896,5.708,7.03,9.081
		h-46.536c-1.705,2.936-3.282,5.954-4.659,9.09h56.493c1.477,3.127,2.799,5.489,3.921,8.799h-63.76
		c-1.012,3.146-1.878,6.364-2.535,9.646h68.966c0.675,3.155,1.194,6.072,1.55,9.045h-71.884c-0.301,3-0.456,6.045-0.456,9.118
		h72.859c0,3.228-0.228,6.218-0.556,9.118h-71.847c0.31,3.091,0.766,6.127,1.368,9.118h68.856c-0.711,2.954-1.532,5.926-2.562,9.008
		h-63.969c0.966,3.118,2.143,6.145,3.428,9.099h56.621c-1.568,3.319-3.346,5.972-5.306,9.081h-46.691
		c1.842,3.191,3.875,6.236,6.081,9.154l33.589,0.501c-2.863,3.437-6.537,5.507-9.884,8.516c0.182,0.146-5.352-0.018-16.248-0.191
		c16.576,17.105,39.744,27.772,65.446,27.772c50.357,0,91.176-40.82,91.176-91.176S250.981,54.719,200.616,54.719z"/>
	</symbol>

</svg>


